<svg xmlns="http://www.w3.org/2000/svg" xmlns:xlink="http://www.w3.org/1999/xlink" viewBox="0 0 637.81996 160.97493" style=""><defs><style>.a08b8fcb-942b-4907-a571-34d5db09f08d,.b3a44b24-9248-4adc-b7da-0ace60fecd6f,.bd7c0b95-0fb3-4224-9dbf-b73fa046d7d1,.fe1fa22d-b74c-4671-98bc-8fa5e71561fb{fill:none;}.ab19984f-d649-40d9-9f74-3654c0e719ab{fill:#231f20;}.fe1fa22d-b74c-4671-98bc-8fa5e71561fb{stroke:red;}.a08b8fcb-942b-4907-a571-34d5db09f08d,.b3a44b24-9248-4adc-b7da-0ace60fecd6f,.fe1fa22d-b74c-4671-98bc-8fa5e71561fb{stroke-miterlimit:10;stroke-width:3px;}.a08b8fcb-942b-4907-a571-34d5db09f08d{stroke:#fcee21;}.a03a7cc6-7100-4bc7-a45a-91be8a1cc02f{font-size:120.07273px;font-family:DIN-Black, DIN Black;font-weight:800;letter-spacing:-0.0585em;}.be6f5969-3079-41bc-af1c-1a1ff1e162f1{letter-spacing:-0.0627em;}.a852e0e5-5dc1-4c2e-a704-f4c80dde54cd{letter-spacing:-0.05199em;}.ac53fd1b-9086-4f9f-a4f4-2853a23c766d{letter-spacing:-0.05481em;}.ad0aed53-8c3f-4775-b40d-4516a26a2de3{letter-spacing:-0.0638em;}.b167559b-4e8c-4c9b-8d03-3f8a3bd699a7{letter-spacing:-0.05919em;}.a1b1caf3-b0cc-4067-955d-17e028e3db9a{letter-spacing:-0.0614em;}.ec2032ec-054a-4355-86f7-2606eb287adc{letter-spacing:-0.0619em;}.a54789b7-e406-468a-9dd4-65862b1e302c{letter-spacing:-0.06049em;}.ed789ea1-21e1-42dd-b952-14cb6d6acb44{letter-spacing:-0.044em;}.b6506bf0-b52b-4016-8c04-ac8321ef1d84{fill:url(#aeb191df-ecd6-4504-82bb-c8a4dd0b78e7);}.b3a44b24-9248-4adc-b7da-0ace60fecd6f{stroke:#000;}</style><pattern id="aeb191df-ecd6-4504-82bb-c8a4dd0b78e7" data-name="6 dpi 60%" width="48" height="48" patternTransform="translate(116.14334 4.11192) scale(0.57996)" patternUnits="userSpaceOnUse" viewBox="0 0 48 48"><path class="bd7c0b95-0fb3-4224-9dbf-b73fa046d7d1 sbPFlkrh_0" width="48" height="48" d="M0 0 L48 0 L48 48 L0 48 Z"></path><path class="ab19984f-d649-40d9-9f74-3654c0e719ab sbPFlkrh_1" d="M24,55.2002A7.2002,7.2002,0,1,0,16.7998,48,7.20038,7.20038,0,0,0,24,55.2002Z"></path><path class="ab19984f-d649-40d9-9f74-3654c0e719ab sbPFlkrh_2" d="M48,55.2002A7.2002,7.2002,0,1,0,40.7998,48,7.20038,7.20038,0,0,0,48,55.2002Z"></path><path class="ab19984f-d649-40d9-9f74-3654c0e719ab sbPFlkrh_3" d="M24,31.2002A7.2002,7.2002,0,1,0,16.7998,24,7.20036,7.20036,0,0,0,24,31.2002Z"></path><path class="ab19984f-d649-40d9-9f74-3654c0e719ab sbPFlkrh_4" d="M48,31.2002A7.2002,7.2002,0,1,0,40.7998,24,7.20036,7.20036,0,0,0,48,31.2002Z"></path><path class="ab19984f-d649-40d9-9f74-3654c0e719ab sbPFlkrh_5" d="M36,43.2002A7.2002,7.2002,0,1,0,28.7998,36,7.20036,7.20036,0,0,0,36,43.2002Z"></path><path class="ab19984f-d649-40d9-9f74-3654c0e719ab sbPFlkrh_6" d="M12,43.2002A7.2002,7.2002,0,1,0,4.7998,36,7.20036,7.20036,0,0,0,12,43.2002Z"></path><path class="ab19984f-d649-40d9-9f74-3654c0e719ab sbPFlkrh_7" d="M36,19.2002A7.2002,7.2002,0,1,0,28.7998,12,7.20036,7.20036,0,0,0,36,19.2002Z"></path><path class="ab19984f-d649-40d9-9f74-3654c0e719ab sbPFlkrh_8" d="M12,19.2002A7.2002,7.2002,0,1,0,4.7998,12,7.20036,7.20036,0,0,0,12,19.2002Z"></path><path class="ab19984f-d649-40d9-9f74-3654c0e719ab sbPFlkrh_9" d="M0,55.2002A7.20038,7.20038,0,0,0,7.1997,48,7.201,7.201,0,0,0,0,40.7998,7.2005,7.2005,0,0,0-7.2002,48,7.19987,7.19987,0,0,0,0,55.2002Z"></path><path class="ab19984f-d649-40d9-9f74-3654c0e719ab sbPFlkrh_10" d="M0,31.2002A7.20036,7.20036,0,0,0,7.1997,24,7.201,7.201,0,0,0,0,16.7998,7.2005,7.2005,0,0,0-7.2002,24,7.19986,7.19986,0,0,0,0,31.2002Z"></path><path class="ab19984f-d649-40d9-9f74-3654c0e719ab sbPFlkrh_11" d="M24,7.2002A7.20036,7.20036,0,0,0,31.1997,0,7.201,7.201,0,0,0,24-7.2002,7.20047,7.20047,0,0,0,16.7998,0,7.19983,7.19983,0,0,0,24,7.2002Z"></path><path class="ab19984f-d649-40d9-9f74-3654c0e719ab sbPFlkrh_12" d="M48,7.2002A7.20036,7.20036,0,0,0,55.1997,0,7.201,7.201,0,0,0,48-7.2002,7.20047,7.20047,0,0,0,40.7998,0,7.19983,7.19983,0,0,0,48,7.2002Z"></path><path class="ab19984f-d649-40d9-9f74-3654c0e719ab sbPFlkrh_13" d="M0,7.2002A7.20036,7.20036,0,0,0,7.1997,0,7.201,7.201,0,0,0,0-7.2002,7.2005,7.2005,0,0,0-7.2002,0,7.19986,7.19986,0,0,0,0,7.2002Z"></path></pattern></defs><g id="a86a4563-d183-47e6-99ca-a19b9ea25649" data-name="Layer 2"><g id="b58abc82-2b18-4b42-baa3-be604e533e0f" data-name="Layer 1"><path class="fe1fa22d-b74c-4671-98bc-8fa5e71561fb sbPFlkrh_14" d="M69.70179,134.7284s60.92213,66.74733,150-19"></path><path class="a08b8fcb-942b-4907-a571-34d5db09f08d sbPFlkrh_15" d="M67.70179,36.7284s180-63,383,23"></path><text class="a03a7cc6-7100-4bc7-a45a-91be8a1cc02f" transform="translate(81.02943 120.65028)">S<tspan class="be6f5969-3079-41bc-af1c-1a1ff1e162f1" x="64.17725" y="0">e</tspan><tspan class="a852e0e5-5dc1-4c2e-a704-f4c80dde54cd" x="123.76807" y="0">n</tspan><tspan class="ac53fd1b-9086-4f9f-a4f4-2853a23c766d" x="187.04639" y="0">s</tspan><tspan class="ad0aed53-8c3f-4775-b40d-4516a26a2de3" x="240.98193" y="0">o</tspan><tspan class="b167559b-4e8c-4c9b-8d03-3f8a3bd699a7" x="299.35986" y="0">r</tspan><tspan class="a1b1caf3-b0cc-4067-955d-17e028e3db9a" x="349.28564" y="0">s</tspan><tspan class="ec2032ec-054a-4355-86f7-2606eb287adc" x="402.4292" y="0">l</tspan><tspan class="a54789b7-e406-468a-9dd4-65862b1e302c" x="435.93994" y="0">o</tspan><tspan class="ed789ea1-21e1-42dd-b952-14cb6d6acb44" x="494.71436" y="0">g</tspan></text><path class="b6506bf0-b52b-4016-8c04-ac8321ef1d84 sbPFlkrh_16" d="M2.55475,82.89613l54.80958,54.80958a8.72248,8.72248,0,0,0,14.8902-6.16772V21.91883a8.72248,8.72248,0,0,0-14.8902-6.16772L2.55475,70.56069A8.72249,8.72249,0,0,0,2.55475,82.89613Z"></path><path class="b3a44b24-9248-4adc-b7da-0ace60fecd6f sbPFlkrh_17" d="M67.70179,23.7284c1.60125-4.18966,19.856-32.83735,60-18,45.61767,16.86042,49.582,51.5,49.582,51.5"></path></g></g><style data-made-with="vivus-instant">.sbPFlkrh_0{stroke-dasharray:192 194;stroke-dashoffset:193;animation:sbPFlkrh_draw 2000ms linear 0ms forwards;}.sbPFlkrh_1{stroke-dasharray:46 48;stroke-dashoffset:47;animation:sbPFlkrh_draw 2000ms linear 58ms forwards;}.sbPFlkrh_2{stroke-dasharray:46 48;stroke-dashoffset:47;animation:sbPFlkrh_draw 2000ms linear 117ms forwards;}.sbPFlkrh_3{stroke-dasharray:46 48;stroke-dashoffset:47;animation:sbPFlkrh_draw 2000ms linear 176ms forwards;}.sbPFlkrh_4{stroke-dasharray:46 48;stroke-dashoffset:47;animation:sbPFlkrh_draw 2000ms linear 235ms forwards;}.sbPFlkrh_5{stroke-dasharray:46 48;stroke-dashoffset:47;animation:sbPFlkrh_draw 2000ms linear 294ms forwards;}.sbPFlkrh_6{stroke-dasharray:46 48;stroke-dashoffset:47;animation:sbPFlkrh_draw 2000ms linear 352ms forwards;}.sbPFlkrh_7{stroke-dasharray:46 48;stroke-dashoffset:47;animation:sbPFlkrh_draw 2000ms linear 411ms forwards;}.sbPFlkrh_8{stroke-dasharray:46 48;stroke-dashoffset:47;animation:sbPFlkrh_draw 2000ms linear 470ms forwards;}.sbPFlkrh_9{stroke-dasharray:46 48;stroke-dashoffset:47;animation:sbPFlkrh_draw 2000ms linear 529ms forwards;}.sbPFlkrh_10{stroke-dasharray:46 48;stroke-dashoffset:47;animation:sbPFlkrh_draw 2000ms linear 588ms forwards;}.sbPFlkrh_11{stroke-dasharray:46 48;stroke-dashoffset:47;animation:sbPFlkrh_draw 2000ms linear 647ms forwards;}.sbPFlkrh_12{stroke-dasharray:46 48;stroke-dashoffset:47;animation:sbPFlkrh_draw 2000ms linear 705ms forwards;}.sbPFlkrh_13{stroke-dasharray:46 48;stroke-dashoffset:47;animation:sbPFlkrh_draw 2000ms linear 764ms forwards;}.sbPFlkrh_14{stroke-dasharray:170 172;stroke-dashoffset:171;animation:sbPFlkrh_draw 2000ms linear 823ms forwards;}.sbPFlkrh_15{stroke-dasharray:392 394;stroke-dashoffset:393;animation:sbPFlkrh_draw 2000ms linear 882ms forwards;}.sbPFlkrh_16{stroke-dasharray:320 322;stroke-dashoffset:321;animation:sbPFlkrh_draw 2000ms linear 941ms forwards;}.sbPFlkrh_17{stroke-dasharray:144 146;stroke-dashoffset:145;animation:sbPFlkrh_draw 2000ms linear 1000ms forwards;}@keyframes sbPFlkrh_draw{100%{stroke-dashoffset:0;}}@keyframes sbPFlkrh_fade{0%{stroke-opacity:1;}94.44444444444444%{stroke-opacity:1;}100%{stroke-opacity:0;}}</style></svg>