<svg xmlns="http://www.w3.org/2000/svg" xmlns:xlink="http://www.w3.org/1999/xlink" viewBox="0 0 675.36523 201.6006"><defs><style>.a5ec5820-b49f-4a6d-a052-347b53d2a9ed,.a9e656b5-2c76-4869-8da0-f335d246aac4,.bbc8b991-366e-4e3f-8510-7bace2a73607,.f41826b3-9e2c-4f1e-b928-9a3f53111b84{fill:none;}.a5ec5820-b49f-4a6d-a052-347b53d2a9ed{stroke:red;}.a5ec5820-b49f-4a6d-a052-347b53d2a9ed,.a9e656b5-2c76-4869-8da0-f335d246aac4,.f41826b3-9e2c-4f1e-b928-9a3f53111b84{stroke-miterlimit:10;stroke-width:3px;}.f41826b3-9e2c-4f1e-b928-9a3f53111b84{stroke:#fcee21;}.f5170674-d679-4f3f-bfb7-51d6f3fcc4a0{font-size:120.07273px;font-family:DIN-Black, DIN Black;font-weight:800;letter-spacing:-0.0585em;}.b96d31bd-b6e6-46d5-b8b7-1e8277d1d0b8,.f5170674-d679-4f3f-bfb7-51d6f3fcc4a0{fill:#fff;}.b261298f-d40f-42ef-9fa0-82aca2077360{letter-spacing:-0.0627em;}.bc8be705-88f8-4cc0-b05a-ca88c5e596d7{letter-spacing:-0.05199em;}.e254917a-feab-4d43-92a8-a8be6f4896f8{letter-spacing:-0.05481em;}.f44f9fd6-8610-4fa3-b9af-332cca031a5c{letter-spacing:-0.0638em;}.fa2b924f-f09b-4b61-8365-af3f24e9dece{letter-spacing:-0.05919em;}.bbd4d1dd-f7e5-4569-983b-9279fbaefa3d{letter-spacing:-0.0614em;}.ba0d747f-cfd6-48e6-83d6-0f0eb3c81068{letter-spacing:-0.0619em;}.a1a9f3d4-b3e6-42e8-8a09-cae69db71322{letter-spacing:-0.06049em;}.a58cb8a0-11f3-4933-bb85-4be95ab5d6cd{letter-spacing:-0.044em;}.b2f9da4c-79ae-4165-bf4e-31828ddf6da4{clip-path:url(#f6b89079-9ea3-457d-8d0a-43b7af543ecb);}.a2a7f068-686a-4671-865d-deea9c19eba6{clip-path:url(#b050965e-e3aa-4473-94d6-5b58d43717f9);}.af3d9a52-194f-4962-ad2a-e1d32a869c88{clip-path:url(#b30cd4b2-84e3-4bf8-b67e-ccd6362598b0);}.af9028e9-d76b-4ca9-8d82-5d8e1a8b625e{clip-path:url(#b85f5a85-607b-4890-96c8-71047e7a970b);}.b075a391-ea92-4e08-99f5-2dc279cd87a9{clip-path:url(#a7ec4884-f23d-438f-94d3-7e420616c324);}.beafd4cf-73b1-4f27-935d-880732f36ee1{clip-path:url(#a81557ea-8ae1-4705-8626-b10233a0db1a);}.bacedc6e-47c9-4d9a-84e6-88beefdae428{clip-path:url(#fb0da66e-29de-475f-b248-ebf65ce7a098);}.be4f3e4b-4ad4-4511-bb65-71c1556fac49{clip-path:url(#bdcc3caa-45bf-4b10-932a-8b2de76a4cd0);}.ad8f8d85-65a7-4b21-a4bc-37528ef0205d{clip-path:url(#a2b828f2-93f1-47a8-8d51-3b9ca4a4fe3f);}.bdbcfae1-2430-451f-b92d-43c669b7eca3{clip-path:url(#a972d69a-3c69-480f-99be-f2972b332d65);}.a5b1b3d9-0f26-4bde-82fd-0507b765d254{clip-path:url(#ff33cd1b-9d7a-4f7a-ae5a-e4d6260272ce);}.b8fa7ece-8f3e-4d92-b5f5-b03b21ea221c{clip-path:url(#fa46ba6d-279a-4e56-abf8-404292181d25);}.f0c5499c-2aba-475d-b22a-91eb8ef61bc7{clip-path:url(#a8696b70-3e4d-4d18-a952-ca790f49771a);}.a9e656b5-2c76-4869-8da0-f335d246aac4{stroke:#fff;}</style><clipPath id="f6b89079-9ea3-457d-8d0a-43b7af543ecb" transform="translate(37.54527 26.5724)"><path class="bbc8b991-366e-4e3f-8510-7bace2a73607" d="M2.55475,82.89613l54.80958,54.80958a8.72248,8.72248,0,0,0,14.8902-6.16772V21.91883a8.72248,8.72248,0,0,0-14.8902-6.16772L2.55475,70.56069A8.72249,8.72249,0,0,0,2.55475,82.89613Z"/></clipPath><clipPath id="b050965e-e3aa-4473-94d6-5b58d43717f9" transform="translate(37.54527 26.5724)"><rect class="bbc8b991-366e-4e3f-8510-7bace2a73607" x="63.25453" y="-21.7716" width="48" height="48"/></clipPath><clipPath id="b30cd4b2-84e3-4bf8-b67e-ccd6362598b0" transform="translate(37.54527 26.5724)"><rect class="bbc8b991-366e-4e3f-8510-7bace2a73607" x="63.25453" y="26.2284" width="48" height="48"/></clipPath><clipPath id="b85f5a85-607b-4890-96c8-71047e7a970b" transform="translate(37.54527 26.5724)"><rect class="bbc8b991-366e-4e3f-8510-7bace2a73607" x="63.25453" y="74.2284" width="48" height="48"/></clipPath><clipPath id="a7ec4884-f23d-438f-94d3-7e420616c324" transform="translate(37.54527 26.5724)"><rect class="bbc8b991-366e-4e3f-8510-7bace2a73607" x="63.25453" y="122.2284" width="48" height="48"/></clipPath><clipPath id="a81557ea-8ae1-4705-8626-b10233a0db1a" transform="translate(37.54527 26.5724)"><rect class="bbc8b991-366e-4e3f-8510-7bace2a73607" x="15.25453" y="-21.7716" width="48" height="48"/></clipPath><clipPath id="fb0da66e-29de-475f-b248-ebf65ce7a098" transform="translate(37.54527 26.5724)"><rect class="bbc8b991-366e-4e3f-8510-7bace2a73607" x="15.25453" y="26.2284" width="48" height="48"/></clipPath><clipPath id="bdcc3caa-45bf-4b10-932a-8b2de76a4cd0" transform="translate(37.54527 26.5724)"><rect class="bbc8b991-366e-4e3f-8510-7bace2a73607" x="15.25453" y="74.2284" width="48" height="48"/></clipPath><clipPath id="a2b828f2-93f1-47a8-8d51-3b9ca4a4fe3f" transform="translate(37.54527 26.5724)"><rect class="bbc8b991-366e-4e3f-8510-7bace2a73607" x="15.25453" y="122.2284" width="48" height="48"/></clipPath><clipPath id="a972d69a-3c69-480f-99be-f2972b332d65" transform="translate(37.54527 26.5724)"><rect class="bbc8b991-366e-4e3f-8510-7bace2a73607" x="-32.74547" y="-21.7716" width="48" height="48"/></clipPath><clipPath id="ff33cd1b-9d7a-4f7a-ae5a-e4d6260272ce" transform="translate(37.54527 26.5724)"><rect class="bbc8b991-366e-4e3f-8510-7bace2a73607" x="-32.74547" y="26.2284" width="48" height="48"/></clipPath><clipPath id="fa46ba6d-279a-4e56-abf8-404292181d25" transform="translate(37.54527 26.5724)"><rect class="bbc8b991-366e-4e3f-8510-7bace2a73607" x="-32.74547" y="74.2284" width="48" height="48"/></clipPath><clipPath id="a8696b70-3e4d-4d18-a952-ca790f49771a" transform="translate(37.54527 26.5724)"><rect class="bbc8b991-366e-4e3f-8510-7bace2a73607" x="-32.74547" y="122.2284" width="48" height="48"/></clipPath></defs><g id="b73f18c2-4661-4a17-b85f-8f0d25070044" data-name="Layer 2"><g id="b0fb40fe-28ec-401d-a70c-2472ce6973a7" data-name="Layer 1"><path class="a5ec5820-b49f-4a6d-a052-347b53d2a9ed" d="M69.70179,134.7284s60.92213,66.74733,150-19" transform="translate(37.54527 26.5724)"/><path class="f41826b3-9e2c-4f1e-b928-9a3f53111b84" d="M67.70179,36.7284s180-63,383,23" transform="translate(37.54527 26.5724)"/><text class="f5170674-d679-4f3f-bfb7-51d6f3fcc4a0" transform="translate(118.5747 147.22268)">S<tspan class="b261298f-d40f-42ef-9fa0-82aca2077360" x="64.17725" y="0">e</tspan><tspan class="bc8be705-88f8-4cc0-b05a-ca88c5e596d7" x="123.76807" y="0">n</tspan><tspan class="e254917a-feab-4d43-92a8-a8be6f4896f8" x="187.04639" y="0">s</tspan><tspan class="f44f9fd6-8610-4fa3-b9af-332cca031a5c" x="240.98193" y="0">o</tspan><tspan class="fa2b924f-f09b-4b61-8365-af3f24e9dece" x="299.35986" y="0">r</tspan><tspan class="bbd4d1dd-f7e5-4569-983b-9279fbaefa3d" x="349.28564" y="0">s</tspan><tspan class="ba0d747f-cfd6-48e6-83d6-0f0eb3c81068" x="402.4292" y="0">l</tspan><tspan class="a1a9f3d4-b3e6-42e8-8a09-cae69db71322" x="435.93994" y="0">o</tspan><tspan class="a58cb8a0-11f3-4933-bb85-4be95ab5d6cd" x="494.71436" y="0">g</tspan></text><g class="b2f9da4c-79ae-4165-bf4e-31828ddf6da4"><g class="a2a7f068-686a-4671-865d-deea9c19eba6"><path class="b96d31bd-b6e6-46d5-b8b7-1e8277d1d0b8" d="M87.25453,31.0282a4.8003,4.8003,0,1,0-4.7998-4.7998A4.8002,4.8002,0,0,0,87.25453,31.0282Z" transform="translate(37.54527 26.5724)"/><path class="b96d31bd-b6e6-46d5-b8b7-1e8277d1d0b8" d="M111.25453,31.0282a4.8003,4.8003,0,1,0-4.7998-4.7998A4.8002,4.8002,0,0,0,111.25453,31.0282Z" transform="translate(37.54527 26.5724)"/><path class="b96d31bd-b6e6-46d5-b8b7-1e8277d1d0b8" d="M87.25453,7.0282a4.7998,4.7998,0,1,0-4.7998-4.7998A4.80017,4.80017,0,0,0,87.25453,7.0282Z" transform="translate(37.54527 26.5724)"/><path class="b96d31bd-b6e6-46d5-b8b7-1e8277d1d0b8" d="M111.25453,7.0282a4.7998,4.7998,0,1,0-4.7998-4.7998A4.80017,4.80017,0,0,0,111.25453,7.0282Z" transform="translate(37.54527 26.5724)"/><path class="b96d31bd-b6e6-46d5-b8b7-1e8277d1d0b8" d="M99.25453,19.0282a4.8003,4.8003,0,1,0-4.7998-4.7998A4.80017,4.80017,0,0,0,99.25453,19.0282Z" transform="translate(37.54527 26.5724)"/><path class="b96d31bd-b6e6-46d5-b8b7-1e8277d1d0b8" d="M75.25453,19.0282a4.8003,4.8003,0,1,0-4.7998-4.7998A4.80017,4.80017,0,0,0,75.25453,19.0282Z" transform="translate(37.54527 26.5724)"/><path class="b96d31bd-b6e6-46d5-b8b7-1e8277d1d0b8" d="M99.25453-4.9718a4.80017,4.80017,0,0,0,4.8003-4.7998,4.80081,4.80081,0,0,0-4.8003-4.7998,4.80006,4.80006,0,0,0-4.7998,4.7998A4.79942,4.79942,0,0,0,99.25453-4.9718Z" transform="translate(37.54527 26.5724)"/><path class="b96d31bd-b6e6-46d5-b8b7-1e8277d1d0b8" d="M75.25453-4.9718a4.80017,4.80017,0,0,0,4.8003-4.7998,4.80081,4.80081,0,0,0-4.8003-4.7998,4.80006,4.80006,0,0,0-4.7998,4.7998A4.79942,4.79942,0,0,0,75.25453-4.9718Z" transform="translate(37.54527 26.5724)"/><path class="b96d31bd-b6e6-46d5-b8b7-1e8277d1d0b8" d="M63.25453,31.0282a4.8003,4.8003,0,1,0-4.7998-4.7998A4.8002,4.8002,0,0,0,63.25453,31.0282Z" transform="translate(37.54527 26.5724)"/><path class="b96d31bd-b6e6-46d5-b8b7-1e8277d1d0b8" d="M63.25453,7.0282a4.7998,4.7998,0,1,0-4.7998-4.7998A4.80017,4.80017,0,0,0,63.25453,7.0282Z" transform="translate(37.54527 26.5724)"/><path class="b96d31bd-b6e6-46d5-b8b7-1e8277d1d0b8" d="M87.25453-16.9718a4.80017,4.80017,0,0,0,4.8003-4.7998,4.80167,4.80167,0,0,0-4.8003-4.8008,4.80092,4.80092,0,0,0-4.7998,4.8008A4.79942,4.79942,0,0,0,87.25453-16.9718Z" transform="translate(37.54527 26.5724)"/><path class="b96d31bd-b6e6-46d5-b8b7-1e8277d1d0b8" d="M111.25453-16.9718a4.80017,4.80017,0,0,0,4.8003-4.7998,4.80167,4.80167,0,0,0-4.8003-4.8008,4.80092,4.80092,0,0,0-4.7998,4.8008A4.79942,4.79942,0,0,0,111.25453-16.9718Z" transform="translate(37.54527 26.5724)"/><path class="b96d31bd-b6e6-46d5-b8b7-1e8277d1d0b8" d="M63.25453-16.9718a4.80017,4.80017,0,0,0,4.8003-4.7998,4.80167,4.80167,0,0,0-4.8003-4.8008,4.80094,4.80094,0,0,0-4.7998,4.8008A4.79944,4.79944,0,0,0,63.25453-16.9718Z" transform="translate(37.54527 26.5724)"/></g><g class="af3d9a52-194f-4962-ad2a-e1d32a869c88"><path class="b96d31bd-b6e6-46d5-b8b7-1e8277d1d0b8" d="M87.25453,79.0282a4.8003,4.8003,0,1,0-4.7998-4.7998A4.8002,4.8002,0,0,0,87.25453,79.0282Z" transform="translate(37.54527 26.5724)"/><path class="b96d31bd-b6e6-46d5-b8b7-1e8277d1d0b8" d="M111.25453,79.0282a4.8003,4.8003,0,1,0-4.7998-4.7998A4.8002,4.8002,0,0,0,111.25453,79.0282Z" transform="translate(37.54527 26.5724)"/><path class="b96d31bd-b6e6-46d5-b8b7-1e8277d1d0b8" d="M87.25453,55.0282a4.7998,4.7998,0,1,0-4.7998-4.7998A4.80017,4.80017,0,0,0,87.25453,55.0282Z" transform="translate(37.54527 26.5724)"/><path class="b96d31bd-b6e6-46d5-b8b7-1e8277d1d0b8" d="M111.25453,55.0282a4.7998,4.7998,0,1,0-4.7998-4.7998A4.80017,4.80017,0,0,0,111.25453,55.0282Z" transform="translate(37.54527 26.5724)"/><path class="b96d31bd-b6e6-46d5-b8b7-1e8277d1d0b8" d="M99.25453,67.0282a4.8003,4.8003,0,1,0-4.7998-4.7998A4.80017,4.80017,0,0,0,99.25453,67.0282Z" transform="translate(37.54527 26.5724)"/><path class="b96d31bd-b6e6-46d5-b8b7-1e8277d1d0b8" d="M75.25453,67.0282a4.8003,4.8003,0,1,0-4.7998-4.7998A4.80017,4.80017,0,0,0,75.25453,67.0282Z" transform="translate(37.54527 26.5724)"/><path class="b96d31bd-b6e6-46d5-b8b7-1e8277d1d0b8" d="M99.25453,43.0282a4.7998,4.7998,0,1,0-4.7998-4.7998A4.80017,4.80017,0,0,0,99.25453,43.0282Z" transform="translate(37.54527 26.5724)"/><path class="b96d31bd-b6e6-46d5-b8b7-1e8277d1d0b8" d="M75.25453,43.0282a4.7998,4.7998,0,1,0-4.7998-4.7998A4.80017,4.80017,0,0,0,75.25453,43.0282Z" transform="translate(37.54527 26.5724)"/><path class="b96d31bd-b6e6-46d5-b8b7-1e8277d1d0b8" d="M63.25453,79.0282a4.8003,4.8003,0,1,0-4.7998-4.7998A4.8002,4.8002,0,0,0,63.25453,79.0282Z" transform="translate(37.54527 26.5724)"/><path class="b96d31bd-b6e6-46d5-b8b7-1e8277d1d0b8" d="M63.25453,55.0282a4.7998,4.7998,0,1,0-4.7998-4.7998A4.80017,4.80017,0,0,0,63.25453,55.0282Z" transform="translate(37.54527 26.5724)"/><path class="b96d31bd-b6e6-46d5-b8b7-1e8277d1d0b8" d="M87.25453,31.0282a4.8003,4.8003,0,1,0-4.7998-4.7998A4.80017,4.80017,0,0,0,87.25453,31.0282Z" transform="translate(37.54527 26.5724)"/><path class="b96d31bd-b6e6-46d5-b8b7-1e8277d1d0b8" d="M111.25453,31.0282a4.8003,4.8003,0,1,0-4.7998-4.7998A4.80017,4.80017,0,0,0,111.25453,31.0282Z" transform="translate(37.54527 26.5724)"/><path class="b96d31bd-b6e6-46d5-b8b7-1e8277d1d0b8" d="M63.25453,31.0282a4.8003,4.8003,0,1,0-4.7998-4.7998A4.80017,4.80017,0,0,0,63.25453,31.0282Z" transform="translate(37.54527 26.5724)"/></g><g class="af9028e9-d76b-4ca9-8d82-5d8e1a8b625e"><path class="b96d31bd-b6e6-46d5-b8b7-1e8277d1d0b8" d="M87.25453,127.0282a4.8003,4.8003,0,1,0-4.7998-4.7998A4.8002,4.8002,0,0,0,87.25453,127.0282Z" transform="translate(37.54527 26.5724)"/><path class="b96d31bd-b6e6-46d5-b8b7-1e8277d1d0b8" d="M111.25453,127.0282a4.8003,4.8003,0,1,0-4.7998-4.7998A4.8002,4.8002,0,0,0,111.25453,127.0282Z" transform="translate(37.54527 26.5724)"/><path class="b96d31bd-b6e6-46d5-b8b7-1e8277d1d0b8" d="M87.25453,103.0282a4.7998,4.7998,0,1,0-4.7998-4.7998A4.80017,4.80017,0,0,0,87.25453,103.0282Z" transform="translate(37.54527 26.5724)"/><path class="b96d31bd-b6e6-46d5-b8b7-1e8277d1d0b8" d="M111.25453,103.0282a4.7998,4.7998,0,1,0-4.7998-4.7998A4.80017,4.80017,0,0,0,111.25453,103.0282Z" transform="translate(37.54527 26.5724)"/><path class="b96d31bd-b6e6-46d5-b8b7-1e8277d1d0b8" d="M99.25453,115.0282a4.8003,4.8003,0,1,0-4.7998-4.7998A4.80017,4.80017,0,0,0,99.25453,115.0282Z" transform="translate(37.54527 26.5724)"/><path class="b96d31bd-b6e6-46d5-b8b7-1e8277d1d0b8" d="M75.25453,115.0282a4.8003,4.8003,0,1,0-4.7998-4.7998A4.80017,4.80017,0,0,0,75.25453,115.0282Z" transform="translate(37.54527 26.5724)"/><path class="b96d31bd-b6e6-46d5-b8b7-1e8277d1d0b8" d="M99.25453,91.0282a4.7998,4.7998,0,1,0-4.7998-4.7998A4.80017,4.80017,0,0,0,99.25453,91.0282Z" transform="translate(37.54527 26.5724)"/><path class="b96d31bd-b6e6-46d5-b8b7-1e8277d1d0b8" d="M75.25453,91.0282a4.7998,4.7998,0,1,0-4.7998-4.7998A4.80017,4.80017,0,0,0,75.25453,91.0282Z" transform="translate(37.54527 26.5724)"/><path class="b96d31bd-b6e6-46d5-b8b7-1e8277d1d0b8" d="M63.25453,127.0282a4.8003,4.8003,0,1,0-4.7998-4.7998A4.8002,4.8002,0,0,0,63.25453,127.0282Z" transform="translate(37.54527 26.5724)"/><path class="b96d31bd-b6e6-46d5-b8b7-1e8277d1d0b8" d="M63.25453,103.0282a4.7998,4.7998,0,1,0-4.7998-4.7998A4.80017,4.80017,0,0,0,63.25453,103.0282Z" transform="translate(37.54527 26.5724)"/><path class="b96d31bd-b6e6-46d5-b8b7-1e8277d1d0b8" d="M87.25453,79.0282a4.8003,4.8003,0,1,0-4.7998-4.7998A4.80017,4.80017,0,0,0,87.25453,79.0282Z" transform="translate(37.54527 26.5724)"/><path class="b96d31bd-b6e6-46d5-b8b7-1e8277d1d0b8" d="M111.25453,79.0282a4.8003,4.8003,0,1,0-4.7998-4.7998A4.80017,4.80017,0,0,0,111.25453,79.0282Z" transform="translate(37.54527 26.5724)"/><path class="b96d31bd-b6e6-46d5-b8b7-1e8277d1d0b8" d="M63.25453,79.0282a4.8003,4.8003,0,1,0-4.7998-4.7998A4.80017,4.80017,0,0,0,63.25453,79.0282Z" transform="translate(37.54527 26.5724)"/></g><g class="b075a391-ea92-4e08-99f5-2dc279cd87a9"><path class="b96d31bd-b6e6-46d5-b8b7-1e8277d1d0b8" d="M87.25453,175.0282a4.8003,4.8003,0,1,0-4.7998-4.7998A4.8002,4.8002,0,0,0,87.25453,175.0282Z" transform="translate(37.54527 26.5724)"/><path class="b96d31bd-b6e6-46d5-b8b7-1e8277d1d0b8" d="M111.25453,175.0282a4.8003,4.8003,0,1,0-4.7998-4.7998A4.8002,4.8002,0,0,0,111.25453,175.0282Z" transform="translate(37.54527 26.5724)"/><path class="b96d31bd-b6e6-46d5-b8b7-1e8277d1d0b8" d="M87.25453,151.0282a4.7998,4.7998,0,1,0-4.7998-4.7998A4.80017,4.80017,0,0,0,87.25453,151.0282Z" transform="translate(37.54527 26.5724)"/><path class="b96d31bd-b6e6-46d5-b8b7-1e8277d1d0b8" d="M111.25453,151.0282a4.7998,4.7998,0,1,0-4.7998-4.7998A4.80017,4.80017,0,0,0,111.25453,151.0282Z" transform="translate(37.54527 26.5724)"/><path class="b96d31bd-b6e6-46d5-b8b7-1e8277d1d0b8" d="M99.25453,163.0282a4.8003,4.8003,0,1,0-4.7998-4.7998A4.80017,4.80017,0,0,0,99.25453,163.0282Z" transform="translate(37.54527 26.5724)"/><path class="b96d31bd-b6e6-46d5-b8b7-1e8277d1d0b8" d="M75.25453,163.0282a4.8003,4.8003,0,1,0-4.7998-4.7998A4.80017,4.80017,0,0,0,75.25453,163.0282Z" transform="translate(37.54527 26.5724)"/><path class="b96d31bd-b6e6-46d5-b8b7-1e8277d1d0b8" d="M99.25453,139.0282a4.7998,4.7998,0,1,0-4.7998-4.7998A4.80017,4.80017,0,0,0,99.25453,139.0282Z" transform="translate(37.54527 26.5724)"/><path class="b96d31bd-b6e6-46d5-b8b7-1e8277d1d0b8" d="M75.25453,139.0282a4.7998,4.7998,0,1,0-4.7998-4.7998A4.80017,4.80017,0,0,0,75.25453,139.0282Z" transform="translate(37.54527 26.5724)"/><path class="b96d31bd-b6e6-46d5-b8b7-1e8277d1d0b8" d="M63.25453,175.0282a4.8003,4.8003,0,1,0-4.7998-4.7998A4.8002,4.8002,0,0,0,63.25453,175.0282Z" transform="translate(37.54527 26.5724)"/><path class="b96d31bd-b6e6-46d5-b8b7-1e8277d1d0b8" d="M63.25453,151.0282a4.7998,4.7998,0,1,0-4.7998-4.7998A4.80017,4.80017,0,0,0,63.25453,151.0282Z" transform="translate(37.54527 26.5724)"/><path class="b96d31bd-b6e6-46d5-b8b7-1e8277d1d0b8" d="M87.25453,127.0282a4.8003,4.8003,0,1,0-4.7998-4.7998A4.80017,4.80017,0,0,0,87.25453,127.0282Z" transform="translate(37.54527 26.5724)"/><path class="b96d31bd-b6e6-46d5-b8b7-1e8277d1d0b8" d="M111.25453,127.0282a4.8003,4.8003,0,1,0-4.7998-4.7998A4.80017,4.80017,0,0,0,111.25453,127.0282Z" transform="translate(37.54527 26.5724)"/><path class="b96d31bd-b6e6-46d5-b8b7-1e8277d1d0b8" d="M63.25453,127.0282a4.8003,4.8003,0,1,0-4.7998-4.7998A4.80017,4.80017,0,0,0,63.25453,127.0282Z" transform="translate(37.54527 26.5724)"/></g><g class="beafd4cf-73b1-4f27-935d-880732f36ee1"><path class="b96d31bd-b6e6-46d5-b8b7-1e8277d1d0b8" d="M39.25453,31.0282a4.8003,4.8003,0,1,0-4.7998-4.7998A4.8002,4.8002,0,0,0,39.25453,31.0282Z" transform="translate(37.54527 26.5724)"/><path class="b96d31bd-b6e6-46d5-b8b7-1e8277d1d0b8" d="M63.25453,31.0282a4.8003,4.8003,0,1,0-4.7998-4.7998A4.8002,4.8002,0,0,0,63.25453,31.0282Z" transform="translate(37.54527 26.5724)"/><path class="b96d31bd-b6e6-46d5-b8b7-1e8277d1d0b8" d="M39.25453,7.0282a4.7998,4.7998,0,1,0-4.7998-4.7998A4.80017,4.80017,0,0,0,39.25453,7.0282Z" transform="translate(37.54527 26.5724)"/><path class="b96d31bd-b6e6-46d5-b8b7-1e8277d1d0b8" d="M63.25453,7.0282a4.7998,4.7998,0,1,0-4.7998-4.7998A4.80017,4.80017,0,0,0,63.25453,7.0282Z" transform="translate(37.54527 26.5724)"/><path class="b96d31bd-b6e6-46d5-b8b7-1e8277d1d0b8" d="M51.25453,19.0282a4.8003,4.8003,0,1,0-4.7998-4.7998A4.80017,4.80017,0,0,0,51.25453,19.0282Z" transform="translate(37.54527 26.5724)"/><path class="b96d31bd-b6e6-46d5-b8b7-1e8277d1d0b8" d="M27.25453,19.0282a4.8003,4.8003,0,1,0-4.7998-4.7998A4.80017,4.80017,0,0,0,27.25453,19.0282Z" transform="translate(37.54527 26.5724)"/><path class="b96d31bd-b6e6-46d5-b8b7-1e8277d1d0b8" d="M51.25453-4.9718a4.80017,4.80017,0,0,0,4.8003-4.7998,4.80081,4.80081,0,0,0-4.8003-4.7998,4.80006,4.80006,0,0,0-4.7998,4.7998A4.79942,4.79942,0,0,0,51.25453-4.9718Z" transform="translate(37.54527 26.5724)"/><path class="b96d31bd-b6e6-46d5-b8b7-1e8277d1d0b8" d="M27.25453-4.9718a4.80017,4.80017,0,0,0,4.8003-4.7998,4.80081,4.80081,0,0,0-4.8003-4.7998,4.80006,4.80006,0,0,0-4.7998,4.7998A4.79942,4.79942,0,0,0,27.25453-4.9718Z" transform="translate(37.54527 26.5724)"/><path class="b96d31bd-b6e6-46d5-b8b7-1e8277d1d0b8" d="M15.25453,31.0282a4.8003,4.8003,0,1,0-4.7998-4.7998A4.8002,4.8002,0,0,0,15.25453,31.0282Z" transform="translate(37.54527 26.5724)"/><path class="b96d31bd-b6e6-46d5-b8b7-1e8277d1d0b8" d="M15.25453,7.0282a4.7998,4.7998,0,1,0-4.7998-4.7998A4.80017,4.80017,0,0,0,15.25453,7.0282Z" transform="translate(37.54527 26.5724)"/><path class="b96d31bd-b6e6-46d5-b8b7-1e8277d1d0b8" d="M39.25453-16.9718a4.80017,4.80017,0,0,0,4.8003-4.7998,4.80167,4.80167,0,0,0-4.8003-4.8008,4.80092,4.80092,0,0,0-4.7998,4.8008A4.79942,4.79942,0,0,0,39.25453-16.9718Z" transform="translate(37.54527 26.5724)"/><path class="b96d31bd-b6e6-46d5-b8b7-1e8277d1d0b8" d="M63.25453-16.9718a4.80017,4.80017,0,0,0,4.8003-4.7998,4.80167,4.80167,0,0,0-4.8003-4.8008,4.80092,4.80092,0,0,0-4.7998,4.8008A4.79942,4.79942,0,0,0,63.25453-16.9718Z" transform="translate(37.54527 26.5724)"/><path class="b96d31bd-b6e6-46d5-b8b7-1e8277d1d0b8" d="M15.25453-16.9718a4.80017,4.80017,0,0,0,4.8003-4.7998,4.80167,4.80167,0,0,0-4.8003-4.8008,4.80094,4.80094,0,0,0-4.7998,4.8008A4.79944,4.79944,0,0,0,15.25453-16.9718Z" transform="translate(37.54527 26.5724)"/></g><g class="bacedc6e-47c9-4d9a-84e6-88beefdae428"><path class="b96d31bd-b6e6-46d5-b8b7-1e8277d1d0b8" d="M39.25453,79.0282a4.8003,4.8003,0,1,0-4.7998-4.7998A4.8002,4.8002,0,0,0,39.25453,79.0282Z" transform="translate(37.54527 26.5724)"/><path class="b96d31bd-b6e6-46d5-b8b7-1e8277d1d0b8" d="M63.25453,79.0282a4.8003,4.8003,0,1,0-4.7998-4.7998A4.8002,4.8002,0,0,0,63.25453,79.0282Z" transform="translate(37.54527 26.5724)"/><path class="b96d31bd-b6e6-46d5-b8b7-1e8277d1d0b8" d="M39.25453,55.0282a4.7998,4.7998,0,1,0-4.7998-4.7998A4.80017,4.80017,0,0,0,39.25453,55.0282Z" transform="translate(37.54527 26.5724)"/><path class="b96d31bd-b6e6-46d5-b8b7-1e8277d1d0b8" d="M63.25453,55.0282a4.7998,4.7998,0,1,0-4.7998-4.7998A4.80017,4.80017,0,0,0,63.25453,55.0282Z" transform="translate(37.54527 26.5724)"/><path class="b96d31bd-b6e6-46d5-b8b7-1e8277d1d0b8" d="M51.25453,67.0282a4.8003,4.8003,0,1,0-4.7998-4.7998A4.80017,4.80017,0,0,0,51.25453,67.0282Z" transform="translate(37.54527 26.5724)"/><path class="b96d31bd-b6e6-46d5-b8b7-1e8277d1d0b8" d="M27.25453,67.0282a4.8003,4.8003,0,1,0-4.7998-4.7998A4.80017,4.80017,0,0,0,27.25453,67.0282Z" transform="translate(37.54527 26.5724)"/><path class="b96d31bd-b6e6-46d5-b8b7-1e8277d1d0b8" d="M51.25453,43.0282a4.7998,4.7998,0,1,0-4.7998-4.7998A4.80017,4.80017,0,0,0,51.25453,43.0282Z" transform="translate(37.54527 26.5724)"/><path class="b96d31bd-b6e6-46d5-b8b7-1e8277d1d0b8" d="M27.25453,43.0282a4.7998,4.7998,0,1,0-4.7998-4.7998A4.80017,4.80017,0,0,0,27.25453,43.0282Z" transform="translate(37.54527 26.5724)"/><path class="b96d31bd-b6e6-46d5-b8b7-1e8277d1d0b8" d="M15.25453,79.0282a4.8003,4.8003,0,1,0-4.7998-4.7998A4.8002,4.8002,0,0,0,15.25453,79.0282Z" transform="translate(37.54527 26.5724)"/><path class="b96d31bd-b6e6-46d5-b8b7-1e8277d1d0b8" d="M15.25453,55.0282a4.7998,4.7998,0,1,0-4.7998-4.7998A4.80017,4.80017,0,0,0,15.25453,55.0282Z" transform="translate(37.54527 26.5724)"/><path class="b96d31bd-b6e6-46d5-b8b7-1e8277d1d0b8" d="M39.25453,31.0282a4.8003,4.8003,0,1,0-4.7998-4.7998A4.80017,4.80017,0,0,0,39.25453,31.0282Z" transform="translate(37.54527 26.5724)"/><path class="b96d31bd-b6e6-46d5-b8b7-1e8277d1d0b8" d="M63.25453,31.0282a4.8003,4.8003,0,1,0-4.7998-4.7998A4.80017,4.80017,0,0,0,63.25453,31.0282Z" transform="translate(37.54527 26.5724)"/><path class="b96d31bd-b6e6-46d5-b8b7-1e8277d1d0b8" d="M15.25453,31.0282a4.8003,4.8003,0,1,0-4.7998-4.7998A4.80017,4.80017,0,0,0,15.25453,31.0282Z" transform="translate(37.54527 26.5724)"/></g><g class="be4f3e4b-4ad4-4511-bb65-71c1556fac49"><path class="b96d31bd-b6e6-46d5-b8b7-1e8277d1d0b8" d="M39.25453,127.0282a4.8003,4.8003,0,1,0-4.7998-4.7998A4.8002,4.8002,0,0,0,39.25453,127.0282Z" transform="translate(37.54527 26.5724)"/><path class="b96d31bd-b6e6-46d5-b8b7-1e8277d1d0b8" d="M63.25453,127.0282a4.8003,4.8003,0,1,0-4.7998-4.7998A4.8002,4.8002,0,0,0,63.25453,127.0282Z" transform="translate(37.54527 26.5724)"/><path class="b96d31bd-b6e6-46d5-b8b7-1e8277d1d0b8" d="M39.25453,103.0282a4.7998,4.7998,0,1,0-4.7998-4.7998A4.80017,4.80017,0,0,0,39.25453,103.0282Z" transform="translate(37.54527 26.5724)"/><path class="b96d31bd-b6e6-46d5-b8b7-1e8277d1d0b8" d="M63.25453,103.0282a4.7998,4.7998,0,1,0-4.7998-4.7998A4.80017,4.80017,0,0,0,63.25453,103.0282Z" transform="translate(37.54527 26.5724)"/><path class="b96d31bd-b6e6-46d5-b8b7-1e8277d1d0b8" d="M51.25453,115.0282a4.8003,4.8003,0,1,0-4.7998-4.7998A4.80017,4.80017,0,0,0,51.25453,115.0282Z" transform="translate(37.54527 26.5724)"/><path class="b96d31bd-b6e6-46d5-b8b7-1e8277d1d0b8" d="M27.25453,115.0282a4.8003,4.8003,0,1,0-4.7998-4.7998A4.80017,4.80017,0,0,0,27.25453,115.0282Z" transform="translate(37.54527 26.5724)"/><path class="b96d31bd-b6e6-46d5-b8b7-1e8277d1d0b8" d="M51.25453,91.0282a4.7998,4.7998,0,1,0-4.7998-4.7998A4.80017,4.80017,0,0,0,51.25453,91.0282Z" transform="translate(37.54527 26.5724)"/><path class="b96d31bd-b6e6-46d5-b8b7-1e8277d1d0b8" d="M27.25453,91.0282a4.7998,4.7998,0,1,0-4.7998-4.7998A4.80017,4.80017,0,0,0,27.25453,91.0282Z" transform="translate(37.54527 26.5724)"/><path class="b96d31bd-b6e6-46d5-b8b7-1e8277d1d0b8" d="M15.25453,127.0282a4.8003,4.8003,0,1,0-4.7998-4.7998A4.8002,4.8002,0,0,0,15.25453,127.0282Z" transform="translate(37.54527 26.5724)"/><path class="b96d31bd-b6e6-46d5-b8b7-1e8277d1d0b8" d="M15.25453,103.0282a4.7998,4.7998,0,1,0-4.7998-4.7998A4.80017,4.80017,0,0,0,15.25453,103.0282Z" transform="translate(37.54527 26.5724)"/><path class="b96d31bd-b6e6-46d5-b8b7-1e8277d1d0b8" d="M39.25453,79.0282a4.8003,4.8003,0,1,0-4.7998-4.7998A4.80017,4.80017,0,0,0,39.25453,79.0282Z" transform="translate(37.54527 26.5724)"/><path class="b96d31bd-b6e6-46d5-b8b7-1e8277d1d0b8" d="M63.25453,79.0282a4.8003,4.8003,0,1,0-4.7998-4.7998A4.80017,4.80017,0,0,0,63.25453,79.0282Z" transform="translate(37.54527 26.5724)"/><path class="b96d31bd-b6e6-46d5-b8b7-1e8277d1d0b8" d="M15.25453,79.0282a4.8003,4.8003,0,1,0-4.7998-4.7998A4.80017,4.80017,0,0,0,15.25453,79.0282Z" transform="translate(37.54527 26.5724)"/></g><g class="ad8f8d85-65a7-4b21-a4bc-37528ef0205d"><path class="b96d31bd-b6e6-46d5-b8b7-1e8277d1d0b8" d="M39.25453,175.0282a4.8003,4.8003,0,1,0-4.7998-4.7998A4.8002,4.8002,0,0,0,39.25453,175.0282Z" transform="translate(37.54527 26.5724)"/><path class="b96d31bd-b6e6-46d5-b8b7-1e8277d1d0b8" d="M63.25453,175.0282a4.8003,4.8003,0,1,0-4.7998-4.7998A4.8002,4.8002,0,0,0,63.25453,175.0282Z" transform="translate(37.54527 26.5724)"/><path class="b96d31bd-b6e6-46d5-b8b7-1e8277d1d0b8" d="M39.25453,151.0282a4.7998,4.7998,0,1,0-4.7998-4.7998A4.80017,4.80017,0,0,0,39.25453,151.0282Z" transform="translate(37.54527 26.5724)"/><path class="b96d31bd-b6e6-46d5-b8b7-1e8277d1d0b8" d="M63.25453,151.0282a4.7998,4.7998,0,1,0-4.7998-4.7998A4.80017,4.80017,0,0,0,63.25453,151.0282Z" transform="translate(37.54527 26.5724)"/><path class="b96d31bd-b6e6-46d5-b8b7-1e8277d1d0b8" d="M51.25453,163.0282a4.8003,4.8003,0,1,0-4.7998-4.7998A4.80017,4.80017,0,0,0,51.25453,163.0282Z" transform="translate(37.54527 26.5724)"/><path class="b96d31bd-b6e6-46d5-b8b7-1e8277d1d0b8" d="M27.25453,163.0282a4.8003,4.8003,0,1,0-4.7998-4.7998A4.80017,4.80017,0,0,0,27.25453,163.0282Z" transform="translate(37.54527 26.5724)"/><path class="b96d31bd-b6e6-46d5-b8b7-1e8277d1d0b8" d="M51.25453,139.0282a4.7998,4.7998,0,1,0-4.7998-4.7998A4.80017,4.80017,0,0,0,51.25453,139.0282Z" transform="translate(37.54527 26.5724)"/><path class="b96d31bd-b6e6-46d5-b8b7-1e8277d1d0b8" d="M27.25453,139.0282a4.7998,4.7998,0,1,0-4.7998-4.7998A4.80017,4.80017,0,0,0,27.25453,139.0282Z" transform="translate(37.54527 26.5724)"/><path class="b96d31bd-b6e6-46d5-b8b7-1e8277d1d0b8" d="M15.25453,175.0282a4.8003,4.8003,0,1,0-4.7998-4.7998A4.8002,4.8002,0,0,0,15.25453,175.0282Z" transform="translate(37.54527 26.5724)"/><path class="b96d31bd-b6e6-46d5-b8b7-1e8277d1d0b8" d="M15.25453,151.0282a4.7998,4.7998,0,1,0-4.7998-4.7998A4.80017,4.80017,0,0,0,15.25453,151.0282Z" transform="translate(37.54527 26.5724)"/><path class="b96d31bd-b6e6-46d5-b8b7-1e8277d1d0b8" d="M39.25453,127.0282a4.8003,4.8003,0,1,0-4.7998-4.7998A4.80017,4.80017,0,0,0,39.25453,127.0282Z" transform="translate(37.54527 26.5724)"/><path class="b96d31bd-b6e6-46d5-b8b7-1e8277d1d0b8" d="M63.25453,127.0282a4.8003,4.8003,0,1,0-4.7998-4.7998A4.80017,4.80017,0,0,0,63.25453,127.0282Z" transform="translate(37.54527 26.5724)"/><path class="b96d31bd-b6e6-46d5-b8b7-1e8277d1d0b8" d="M15.25453,127.0282a4.8003,4.8003,0,1,0-4.7998-4.7998A4.80017,4.80017,0,0,0,15.25453,127.0282Z" transform="translate(37.54527 26.5724)"/></g><g class="bdbcfae1-2430-451f-b92d-43c669b7eca3"><path class="b96d31bd-b6e6-46d5-b8b7-1e8277d1d0b8" d="M-8.74547,31.0282a4.8002,4.8002,0,0,0,4.8003-4.7998,4.80166,4.80166,0,0,0-4.8003-4.80079,4.80091,4.80091,0,0,0-4.7998,4.80079A4.79945,4.79945,0,0,0-8.74547,31.0282Z" transform="translate(37.54527 26.5724)"/><path class="b96d31bd-b6e6-46d5-b8b7-1e8277d1d0b8" d="M15.25453,31.0282a4.8003,4.8003,0,1,0-4.7998-4.7998A4.8002,4.8002,0,0,0,15.25453,31.0282Z" transform="translate(37.54527 26.5724)"/><path class="b96d31bd-b6e6-46d5-b8b7-1e8277d1d0b8" d="M-8.74547,7.0282a4.80017,4.80017,0,0,0,4.8003-4.7998,4.80081,4.80081,0,0,0-4.8003-4.7998,4.80006,4.80006,0,0,0-4.7998,4.7998A4.79942,4.79942,0,0,0-8.74547,7.0282Z" transform="translate(37.54527 26.5724)"/><path class="b96d31bd-b6e6-46d5-b8b7-1e8277d1d0b8" d="M15.25453,7.0282a4.7998,4.7998,0,1,0-4.7998-4.7998A4.80017,4.80017,0,0,0,15.25453,7.0282Z" transform="translate(37.54527 26.5724)"/><path class="b96d31bd-b6e6-46d5-b8b7-1e8277d1d0b8" d="M3.25453,19.0282a4.8003,4.8003,0,1,0-4.7998-4.7998A4.80017,4.80017,0,0,0,3.25453,19.0282Z" transform="translate(37.54527 26.5724)"/><path class="b96d31bd-b6e6-46d5-b8b7-1e8277d1d0b8" d="M-20.74547,19.0282a4.80017,4.80017,0,0,0,4.8003-4.7998,4.80167,4.80167,0,0,0-4.8003-4.8008,4.80092,4.80092,0,0,0-4.7998,4.8008A4.79942,4.79942,0,0,0-20.74547,19.0282Z" transform="translate(37.54527 26.5724)"/><path class="b96d31bd-b6e6-46d5-b8b7-1e8277d1d0b8" d="M3.25453-4.9718a4.80017,4.80017,0,0,0,4.8003-4.7998,4.80081,4.80081,0,0,0-4.8003-4.7998,4.80006,4.80006,0,0,0-4.7998,4.7998A4.79942,4.79942,0,0,0,3.25453-4.9718Z" transform="translate(37.54527 26.5724)"/><path class="b96d31bd-b6e6-46d5-b8b7-1e8277d1d0b8" d="M-20.74547-4.9718a4.80017,4.80017,0,0,0,4.8003-4.7998,4.80081,4.80081,0,0,0-4.8003-4.7998,4.80006,4.80006,0,0,0-4.7998,4.7998A4.79942,4.79942,0,0,0-20.74547-4.9718Z" transform="translate(37.54527 26.5724)"/><path class="b96d31bd-b6e6-46d5-b8b7-1e8277d1d0b8" d="M-32.74547,31.0282a4.8002,4.8002,0,0,0,4.8003-4.7998,4.80166,4.80166,0,0,0-4.8003-4.80079,4.80093,4.80093,0,0,0-4.7998,4.80079A4.79947,4.79947,0,0,0-32.74547,31.0282Z" transform="translate(37.54527 26.5724)"/><path class="b96d31bd-b6e6-46d5-b8b7-1e8277d1d0b8" d="M-32.74547,7.0282a4.80017,4.80017,0,0,0,4.8003-4.7998,4.80081,4.80081,0,0,0-4.8003-4.7998,4.80008,4.80008,0,0,0-4.7998,4.7998A4.79944,4.79944,0,0,0-32.74547,7.0282Z" transform="translate(37.54527 26.5724)"/><path class="b96d31bd-b6e6-46d5-b8b7-1e8277d1d0b8" d="M-8.74547-16.9718a4.80017,4.80017,0,0,0,4.8003-4.7998,4.80167,4.80167,0,0,0-4.8003-4.8008,4.80092,4.80092,0,0,0-4.7998,4.8008A4.79942,4.79942,0,0,0-8.74547-16.9718Z" transform="translate(37.54527 26.5724)"/><path class="b96d31bd-b6e6-46d5-b8b7-1e8277d1d0b8" d="M15.25453-16.9718a4.80017,4.80017,0,0,0,4.8003-4.7998,4.80167,4.80167,0,0,0-4.8003-4.8008,4.80092,4.80092,0,0,0-4.7998,4.8008A4.79942,4.79942,0,0,0,15.25453-16.9718Z" transform="translate(37.54527 26.5724)"/><path class="b96d31bd-b6e6-46d5-b8b7-1e8277d1d0b8" d="M-32.74547-16.9718a4.80017,4.80017,0,0,0,4.8003-4.7998,4.80167,4.80167,0,0,0-4.8003-4.8008,4.80094,4.80094,0,0,0-4.7998,4.8008A4.79944,4.79944,0,0,0-32.74547-16.9718Z" transform="translate(37.54527 26.5724)"/></g><g class="a5b1b3d9-0f26-4bde-82fd-0507b765d254"><path class="b96d31bd-b6e6-46d5-b8b7-1e8277d1d0b8" d="M-8.74547,79.0282a4.8002,4.8002,0,0,0,4.8003-4.7998,4.80166,4.80166,0,0,0-4.8003-4.80079,4.80091,4.80091,0,0,0-4.7998,4.80079A4.79945,4.79945,0,0,0-8.74547,79.0282Z" transform="translate(37.54527 26.5724)"/><path class="b96d31bd-b6e6-46d5-b8b7-1e8277d1d0b8" d="M15.25453,79.0282a4.8003,4.8003,0,1,0-4.7998-4.7998A4.8002,4.8002,0,0,0,15.25453,79.0282Z" transform="translate(37.54527 26.5724)"/><path class="b96d31bd-b6e6-46d5-b8b7-1e8277d1d0b8" d="M-8.74547,55.0282a4.80017,4.80017,0,0,0,4.8003-4.7998,4.80081,4.80081,0,0,0-4.8003-4.7998,4.80006,4.80006,0,0,0-4.7998,4.7998A4.79942,4.79942,0,0,0-8.74547,55.0282Z" transform="translate(37.54527 26.5724)"/><path class="b96d31bd-b6e6-46d5-b8b7-1e8277d1d0b8" d="M15.25453,55.0282a4.7998,4.7998,0,1,0-4.7998-4.7998A4.80017,4.80017,0,0,0,15.25453,55.0282Z" transform="translate(37.54527 26.5724)"/><path class="b96d31bd-b6e6-46d5-b8b7-1e8277d1d0b8" d="M3.25453,67.0282a4.8003,4.8003,0,1,0-4.7998-4.7998A4.80017,4.80017,0,0,0,3.25453,67.0282Z" transform="translate(37.54527 26.5724)"/><path class="b96d31bd-b6e6-46d5-b8b7-1e8277d1d0b8" d="M-20.74547,67.0282a4.80017,4.80017,0,0,0,4.8003-4.7998,4.80167,4.80167,0,0,0-4.8003-4.8008,4.80092,4.80092,0,0,0-4.7998,4.8008A4.79942,4.79942,0,0,0-20.74547,67.0282Z" transform="translate(37.54527 26.5724)"/><path class="b96d31bd-b6e6-46d5-b8b7-1e8277d1d0b8" d="M3.25453,43.0282a4.7998,4.7998,0,1,0-4.7998-4.7998A4.80017,4.80017,0,0,0,3.25453,43.0282Z" transform="translate(37.54527 26.5724)"/><path class="b96d31bd-b6e6-46d5-b8b7-1e8277d1d0b8" d="M-20.74547,43.0282a4.80017,4.80017,0,0,0,4.8003-4.7998,4.80081,4.80081,0,0,0-4.8003-4.7998,4.80006,4.80006,0,0,0-4.7998,4.7998A4.79942,4.79942,0,0,0-20.74547,43.0282Z" transform="translate(37.54527 26.5724)"/><path class="b96d31bd-b6e6-46d5-b8b7-1e8277d1d0b8" d="M-32.74547,79.0282a4.8002,4.8002,0,0,0,4.8003-4.7998,4.80166,4.80166,0,0,0-4.8003-4.80079,4.80093,4.80093,0,0,0-4.7998,4.80079A4.79947,4.79947,0,0,0-32.74547,79.0282Z" transform="translate(37.54527 26.5724)"/><path class="b96d31bd-b6e6-46d5-b8b7-1e8277d1d0b8" d="M-32.74547,55.0282a4.80017,4.80017,0,0,0,4.8003-4.7998,4.80081,4.80081,0,0,0-4.8003-4.7998,4.80008,4.80008,0,0,0-4.7998,4.7998A4.79944,4.79944,0,0,0-32.74547,55.0282Z" transform="translate(37.54527 26.5724)"/><path class="b96d31bd-b6e6-46d5-b8b7-1e8277d1d0b8" d="M-8.74547,31.0282a4.80017,4.80017,0,0,0,4.8003-4.7998,4.80167,4.80167,0,0,0-4.8003-4.8008,4.80092,4.80092,0,0,0-4.7998,4.8008A4.79942,4.79942,0,0,0-8.74547,31.0282Z" transform="translate(37.54527 26.5724)"/><path class="b96d31bd-b6e6-46d5-b8b7-1e8277d1d0b8" d="M15.25453,31.0282a4.8003,4.8003,0,1,0-4.7998-4.7998A4.80017,4.80017,0,0,0,15.25453,31.0282Z" transform="translate(37.54527 26.5724)"/><path class="b96d31bd-b6e6-46d5-b8b7-1e8277d1d0b8" d="M-32.74547,31.0282a4.80017,4.80017,0,0,0,4.8003-4.7998,4.80167,4.80167,0,0,0-4.8003-4.8008,4.80094,4.80094,0,0,0-4.7998,4.8008A4.79944,4.79944,0,0,0-32.74547,31.0282Z" transform="translate(37.54527 26.5724)"/></g><g class="b8fa7ece-8f3e-4d92-b5f5-b03b21ea221c"><path class="b96d31bd-b6e6-46d5-b8b7-1e8277d1d0b8" d="M-8.74547,127.0282a4.8002,4.8002,0,0,0,4.8003-4.7998,4.80166,4.80166,0,0,0-4.8003-4.80079,4.80091,4.80091,0,0,0-4.7998,4.80079A4.79945,4.79945,0,0,0-8.74547,127.0282Z" transform="translate(37.54527 26.5724)"/><path class="b96d31bd-b6e6-46d5-b8b7-1e8277d1d0b8" d="M15.25453,127.0282a4.8003,4.8003,0,1,0-4.7998-4.7998A4.8002,4.8002,0,0,0,15.25453,127.0282Z" transform="translate(37.54527 26.5724)"/><path class="b96d31bd-b6e6-46d5-b8b7-1e8277d1d0b8" d="M-8.74547,103.0282a4.80017,4.80017,0,0,0,4.8003-4.7998,4.80081,4.80081,0,0,0-4.8003-4.7998,4.80006,4.80006,0,0,0-4.7998,4.7998A4.79942,4.79942,0,0,0-8.74547,103.0282Z" transform="translate(37.54527 26.5724)"/><path class="b96d31bd-b6e6-46d5-b8b7-1e8277d1d0b8" d="M15.25453,103.0282a4.7998,4.7998,0,1,0-4.7998-4.7998A4.80017,4.80017,0,0,0,15.25453,103.0282Z" transform="translate(37.54527 26.5724)"/><path class="b96d31bd-b6e6-46d5-b8b7-1e8277d1d0b8" d="M3.25453,115.0282a4.8003,4.8003,0,1,0-4.7998-4.7998A4.80017,4.80017,0,0,0,3.25453,115.0282Z" transform="translate(37.54527 26.5724)"/><path class="b96d31bd-b6e6-46d5-b8b7-1e8277d1d0b8" d="M-20.74547,115.0282a4.80017,4.80017,0,0,0,4.8003-4.7998,4.80167,4.80167,0,0,0-4.8003-4.8008,4.80092,4.80092,0,0,0-4.7998,4.8008A4.79942,4.79942,0,0,0-20.74547,115.0282Z" transform="translate(37.54527 26.5724)"/><path class="b96d31bd-b6e6-46d5-b8b7-1e8277d1d0b8" d="M3.25453,91.0282a4.7998,4.7998,0,1,0-4.7998-4.7998A4.80017,4.80017,0,0,0,3.25453,91.0282Z" transform="translate(37.54527 26.5724)"/><path class="b96d31bd-b6e6-46d5-b8b7-1e8277d1d0b8" d="M-20.74547,91.0282a4.80017,4.80017,0,0,0,4.8003-4.7998,4.80081,4.80081,0,0,0-4.8003-4.7998,4.80006,4.80006,0,0,0-4.7998,4.7998A4.79942,4.79942,0,0,0-20.74547,91.0282Z" transform="translate(37.54527 26.5724)"/><path class="b96d31bd-b6e6-46d5-b8b7-1e8277d1d0b8" d="M-32.74547,127.0282a4.8002,4.8002,0,0,0,4.8003-4.7998,4.80166,4.80166,0,0,0-4.8003-4.80079,4.80093,4.80093,0,0,0-4.7998,4.80079A4.79947,4.79947,0,0,0-32.74547,127.0282Z" transform="translate(37.54527 26.5724)"/><path class="b96d31bd-b6e6-46d5-b8b7-1e8277d1d0b8" d="M-32.74547,103.0282a4.80017,4.80017,0,0,0,4.8003-4.7998,4.80081,4.80081,0,0,0-4.8003-4.7998,4.80008,4.80008,0,0,0-4.7998,4.7998A4.79944,4.79944,0,0,0-32.74547,103.0282Z" transform="translate(37.54527 26.5724)"/><path class="b96d31bd-b6e6-46d5-b8b7-1e8277d1d0b8" d="M-8.74547,79.0282a4.80017,4.80017,0,0,0,4.8003-4.7998,4.80167,4.80167,0,0,0-4.8003-4.8008,4.80092,4.80092,0,0,0-4.7998,4.8008A4.79942,4.79942,0,0,0-8.74547,79.0282Z" transform="translate(37.54527 26.5724)"/><path class="b96d31bd-b6e6-46d5-b8b7-1e8277d1d0b8" d="M15.25453,79.0282a4.8003,4.8003,0,1,0-4.7998-4.7998A4.80017,4.80017,0,0,0,15.25453,79.0282Z" transform="translate(37.54527 26.5724)"/><path class="b96d31bd-b6e6-46d5-b8b7-1e8277d1d0b8" d="M-32.74547,79.0282a4.80017,4.80017,0,0,0,4.8003-4.7998,4.80167,4.80167,0,0,0-4.8003-4.8008,4.80094,4.80094,0,0,0-4.7998,4.8008A4.79944,4.79944,0,0,0-32.74547,79.0282Z" transform="translate(37.54527 26.5724)"/></g><g class="f0c5499c-2aba-475d-b22a-91eb8ef61bc7"><path class="b96d31bd-b6e6-46d5-b8b7-1e8277d1d0b8" d="M-8.74547,175.0282a4.8002,4.8002,0,0,0,4.8003-4.7998,4.80166,4.80166,0,0,0-4.8003-4.80079,4.80091,4.80091,0,0,0-4.7998,4.80079A4.79945,4.79945,0,0,0-8.74547,175.0282Z" transform="translate(37.54527 26.5724)"/><path class="b96d31bd-b6e6-46d5-b8b7-1e8277d1d0b8" d="M15.25453,175.0282a4.8003,4.8003,0,1,0-4.7998-4.7998A4.8002,4.8002,0,0,0,15.25453,175.0282Z" transform="translate(37.54527 26.5724)"/><path class="b96d31bd-b6e6-46d5-b8b7-1e8277d1d0b8" d="M-8.74547,151.0282a4.80017,4.80017,0,0,0,4.8003-4.7998,4.80081,4.80081,0,0,0-4.8003-4.7998,4.80006,4.80006,0,0,0-4.7998,4.7998A4.79942,4.79942,0,0,0-8.74547,151.0282Z" transform="translate(37.54527 26.5724)"/><path class="b96d31bd-b6e6-46d5-b8b7-1e8277d1d0b8" d="M15.25453,151.0282a4.7998,4.7998,0,1,0-4.7998-4.7998A4.80017,4.80017,0,0,0,15.25453,151.0282Z" transform="translate(37.54527 26.5724)"/><path class="b96d31bd-b6e6-46d5-b8b7-1e8277d1d0b8" d="M3.25453,163.0282a4.8003,4.8003,0,1,0-4.7998-4.7998A4.80017,4.80017,0,0,0,3.25453,163.0282Z" transform="translate(37.54527 26.5724)"/><path class="b96d31bd-b6e6-46d5-b8b7-1e8277d1d0b8" d="M-20.74547,163.0282a4.80017,4.80017,0,0,0,4.8003-4.7998,4.80167,4.80167,0,0,0-4.8003-4.8008,4.80092,4.80092,0,0,0-4.7998,4.8008A4.79942,4.79942,0,0,0-20.74547,163.0282Z" transform="translate(37.54527 26.5724)"/><path class="b96d31bd-b6e6-46d5-b8b7-1e8277d1d0b8" d="M3.25453,139.0282a4.7998,4.7998,0,1,0-4.7998-4.7998A4.80017,4.80017,0,0,0,3.25453,139.0282Z" transform="translate(37.54527 26.5724)"/><path class="b96d31bd-b6e6-46d5-b8b7-1e8277d1d0b8" d="M-20.74547,139.0282a4.80017,4.80017,0,0,0,4.8003-4.7998,4.80081,4.80081,0,0,0-4.8003-4.7998,4.80006,4.80006,0,0,0-4.7998,4.7998A4.79942,4.79942,0,0,0-20.74547,139.0282Z" transform="translate(37.54527 26.5724)"/><path class="b96d31bd-b6e6-46d5-b8b7-1e8277d1d0b8" d="M-32.74547,175.0282a4.8002,4.8002,0,0,0,4.8003-4.7998,4.80166,4.80166,0,0,0-4.8003-4.80079,4.80093,4.80093,0,0,0-4.7998,4.80079A4.79947,4.79947,0,0,0-32.74547,175.0282Z" transform="translate(37.54527 26.5724)"/><path class="b96d31bd-b6e6-46d5-b8b7-1e8277d1d0b8" d="M-32.74547,151.0282a4.80017,4.80017,0,0,0,4.8003-4.7998,4.80081,4.80081,0,0,0-4.8003-4.7998,4.80008,4.80008,0,0,0-4.7998,4.7998A4.79944,4.79944,0,0,0-32.74547,151.0282Z" transform="translate(37.54527 26.5724)"/><path class="b96d31bd-b6e6-46d5-b8b7-1e8277d1d0b8" d="M-8.74547,127.0282a4.80017,4.80017,0,0,0,4.8003-4.7998,4.80167,4.80167,0,0,0-4.8003-4.8008,4.80092,4.80092,0,0,0-4.7998,4.8008A4.79942,4.79942,0,0,0-8.74547,127.0282Z" transform="translate(37.54527 26.5724)"/><path class="b96d31bd-b6e6-46d5-b8b7-1e8277d1d0b8" d="M15.25453,127.0282a4.8003,4.8003,0,1,0-4.7998-4.7998A4.80017,4.80017,0,0,0,15.25453,127.0282Z" transform="translate(37.54527 26.5724)"/><path class="b96d31bd-b6e6-46d5-b8b7-1e8277d1d0b8" d="M-32.74547,127.0282a4.80017,4.80017,0,0,0,4.8003-4.7998,4.80167,4.80167,0,0,0-4.8003-4.8008,4.80094,4.80094,0,0,0-4.7998,4.8008A4.79944,4.79944,0,0,0-32.74547,127.0282Z" transform="translate(37.54527 26.5724)"/></g></g><path class="a9e656b5-2c76-4869-8da0-f335d246aac4" d="M67.70179,23.7284c1.60125-4.18966,19.856-32.83735,60-18,45.61767,16.86042,49.582,51.5,49.582,51.5" transform="translate(37.54527 26.5724)"/></g></g></svg>